# xmcd CD database file
#
# Track frame offsets:
#	150
#	21678
#	43474
#	59719
#	75955
#	91551
#	110320
#	130697
#	147505
#	169085
#	184101
#	200537
#	217278
#	233586
#
# Disc length: 3303 seconds
#
# Revision: 1
# Processed by: cddbd v1.5.2PL0 Copyright (c) Steve Scherf et al.
# Submitted via: CDex 1.51
#
DISCID=ca0ce50e
DTITLE=Marcia Ball - So Many Rivers
DYEAR=2003
DGENRE=Blues
TTITLE0=Foreclose on the House of Love
TTITLE1=Dance With Me
TTITLE2=Baby, Why Not
TTITLE3=Honeypie
TTITLE4=Give Me a Chance
TTITLE5=Didn't You Know
TTITLE6=Give It Up (Give In)
TTITLE7=So Many Rivers to Cross
TTITLE8=The Storm
TTITLE9=The Lowdown
TTITLE10=Hurricane on China Lake
TTITLE11=Three Hundred Pounds of Hongry
TTITLE12=If It's Really Got to Be This Way
TTITLE13=If It Ain't One Thing
EXTD=YEAR: 2003
EXTT0=
EXTT1=
EXTT2=
EXTT3=
EXTT4=
EXTT5=
EXTT6=
EXTT7=
EXTT8=
EXTT9=
EXTT10=
EXTT11=
EXTT12=
EXTT13=
PLAYORDER=
